<svg width="60" height="60" viewBox="0 0 60 60" fill="none" xmlns="http://www.w3.org/2000/svg"><path fill-rule="evenodd" clip-rule="evenodd" d="M30 9a1 1 0 100-2 1 1 0 000 2zm2.95-.46A3.02 3.02 0 0030 5a3 3 0 00-2.95 3.54L20.59 15H7a2 2 0 00-2 2v31c0 1.1.9 2 2 2h46a2 2 0 002-2V17a2 2 0 00-2-2H39.41l-6.46-6.46zm-1.05 1.78a2.99 2.99 0 01-3.8 0L23.4 15H36.6l-4.69-4.68zM53 17v31H7V17h46zM11 44V21h38v13.59l-1.88-1.88a3 3 0 00-4.24 0L41 34.59l-6.88-6.88a3 3 0 00-4.24 0L13.58 44H11zm34.7-9.88l3.3 3.3V44H34.41l7.3-7.3 2.58-2.58a1 1 0 011.42 0zM39.6 36l-8 8H16.4L31.3 29.12a1 1 0 011.42 0L39.59 36zM9 20a1 1 0 011-1h40a1 1 0 011 1v25a1 1 0 01-1 1H10a1 1 0 01-1-1V20zm11 7.5a1.5 1.5 0 11-3 0 1.5 1.5 0 013 0zm2 0a3.5 3.5 0 11-7 0 3.5 3.5 0 017 0z" fill="#444"/></svg>