<svg width="60" height="60" viewBox="0 0 60 60" fill="none" xmlns="http://www.w3.org/2000/svg"><path fill-rule="evenodd" clip-rule="evenodd" d="M5.88 23.72a3.95 3.95 0 00-3.75 4.91l3.5 13.82a2 2 0 001.93 1.51h1.67l.28-.02h6.22l.3.02h27.95l.29-.02h6.22l.28.02h1.67a2 2 0 001.94-1.5l3.5-13.83a3.95 3.95 0 00-3.76-4.91h-.07a3.95 3.95 0 00-3.82 2.98l-1.94 7.63-.38 1.51h-.53v.02H12.62v-.02h-.53l-.38-1.5-1.93-7.64a3.95 3.95 0 00-3.83-2.98h-.07zm-2.2 19.23a4 4 0 003.83 3.01V48c0 1.1.9 2 2 2h6.22a2 2 0 002-2v-2.04h24.54V48c0 1.1.9 2 2 2h6.22a2 2 0 002-2v-2.04a4 4 0 003.83-3.01l3.5-13.83a5.95 5.95 0 00-3.75-7.05V22l.75-5.15a6 6 0 00-6.41-6.84l-10.64.84a124 124 0 01-19.54 0l-10.64-.84a6 6 0 00-6.4 6.84L3.92 22v.06A5.95 5.95 0 00.2 29.12l3.5 13.83zM9.51 48v-2.04h6.22V48H9.51zm34.76-2.04h6.22V48h-6.22v-2.04zm4.02-19.75l-.66 2.58H12.36l-.64-2.58a5.95 5.95 0 00-5.77-4.49h-.04l-.75-5.15a4 4 0 014.28-4.56l10.63.84c6.61.53 13.25.53 19.86 0l10.63-.84a4 4 0 014.28 4.56l-.75 5.15h-.04a5.95 5.95 0 00-5.76 4.49zm-34.17 7.63h31.76l.88-3.05H13.24l.88 3.05zm4.64-12.12c1.13 0 2.04-.9 2.04-2.02s-.91-2.02-2.04-2.02-2.05.9-2.05 2.02.92 2.02 2.05 2.02zm24.53-2.02c0 1.12-.92 2.02-2.05 2.02-1.12 0-2.04-.9-2.04-2.02s.92-2.02 2.04-2.02c1.13 0 2.05.9 2.05 2.02zM30 21.72c1.13 0 2.04-.9 2.04-2.02s-.91-2.02-2.04-2.02-2.04.9-2.04 2.02.91 2.02 2.04 2.02z" fill="#444"/></svg>