<svg width="62" height="17" viewBox="0 0 62 17" fill="none" xmlns="http://www.w3.org/2000/svg"><path fill-rule="evenodd" clip-rule="evenodd" d="M10.7 2.85l-.88-1.52a.87.87 0 00-1.19-.32.88.88 0 00-.31 1.2l.87 1.5 1.5-.86zM8.18.24a1.77 1.77 0 00-.8 2.02L2.7 5.61l-.03.01a1.32 1.32 0 00-1.8 1.23c0 .62.42 1.14 1 1.29l2.9 6.21H2.62A2.62 2.62 0 000 17H10.53a2.62 2.62 0 00-2.62-2.65h-2.2a.45.45 0 00-.04-.19L2.8 8.03a1.32 1.32 0 00.56-1.8l4.43-3.16.63 1.1.06.1a3.59 3.59 0 00-.56 4.32l.42.73.77-.45L10.6 8a1.76 1.76 0 002.4.64 1.76 1.76 0 00.65-2.4l1.51-.89.77-.44-.42-.73-.03-.05a3.55 3.55 0 00-3.97-1.62l-.06-.11-.87-1.51a1.75 1.75 0 00-2.4-.65zm-.28 15H2.62c-.63 0-1.19.35-1.5.87H9.4c-.3-.52-.85-.86-1.49-.86zM9.66 4.5l1.46-.85a2.66 2.66 0 013.6.94L8.67 8.1a2.68 2.68 0 011-3.61zM2.63 6.85c0 .24-.2.43-.44.43a.43.43 0 01-.43-.43c0-.23.2-.43.43-.43.25 0 .44.2.44.43zm26.66-1.83h1.2v9.3h-1.2v-9.3zm-2.4 2.66v5.73c0 1.16-.28 2.02-.85 2.57-.57.56-1.42.84-2.55.84-.62 0-1.21-.09-1.78-.26a3.44 3.44 0 01-1.36-.73l.57-.93c.3.27.68.48 1.13.63.45.16.92.24 1.4.24.77 0 1.33-.18 1.7-.55.37-.37.55-.93.55-1.68V13c-.28.35-.62.6-1.04.78a3.64 3.64 0 01-3.04-.15A3.08 3.08 0 0120 10.82c0-.63.15-1.18.44-1.67.29-.49.68-.87 1.19-1.14a3.64 3.64 0 013.08-.12c.43.18.78.45 1.06.81V7.68h1.13zm-3.42 5.3c.43 0 .82-.08 1.16-.27.34-.18.61-.44.8-.76.2-.34.3-.71.3-1.13 0-.64-.21-1.16-.63-1.55-.42-.4-.97-.6-1.63-.6-.67 0-1.21.2-1.63.6-.42.39-.64.9-.64 1.55 0 .42.1.8.29 1.13.2.32.47.58.8.76.35.19.75.28 1.18.28zm10.46.97c.52.3 1.11.44 1.76.44.66 0 1.24-.15 1.75-.44.52-.29.93-.7 1.22-1.2.3-.52.44-1.1.44-1.75 0-.66-.15-1.24-.44-1.74-.3-.52-.7-.92-1.22-1.2-.51-.3-1.1-.45-1.75-.45-.65 0-1.24.15-1.76.44a3.1 3.1 0 00-1.22 1.2c-.3.51-.44 1.1-.44 1.75a3.22 3.22 0 001.66 2.96zm2.9-.9c-.34.2-.71.29-1.14.29-.42 0-.8-.1-1.14-.29A2.23 2.23 0 0133.47 11c0-.46.1-.87.29-1.22a2.11 2.11 0 011.93-1.11c.43 0 .8.1 1.13.28.34.2.6.47.8.83.19.35.28.76.28 1.22 0 .46-.1.86-.28 1.22-.2.35-.46.63-.8.83zm9.98-2.02c0 .1 0 .22-.02.37h-5.33c.07.58.32 1.05.75 1.41.44.35.98.53 1.63.53.78 0 1.41-.27 1.9-.8l.65.77c-.3.35-.67.62-1.12.8-.43.19-.93.28-1.47.28a3.9 3.9 0 01-1.85-.42c-.54-.3-.95-.7-1.25-1.22a3.53 3.53 0 01-.43-1.75c0-.65.14-1.23.42-1.74a3.1 3.1 0 011.17-1.2c.5-.3 1.08-.45 1.7-.45.63 0 1.19.15 1.68.44.5.29.88.69 1.15 1.2.28.52.42 1.12.42 1.78zm-3.25-2.4c-.57 0-1.05.17-1.43.52-.38.36-.6.81-.67 1.38h4.21a2.1 2.1 0 00-2.1-1.9zm6.63 5.69h1.22l2.87-6.64h-1.16L50.8 13l-2.26-5.32h-1.24l2.88 6.64zm7.88-3.1l-1.36 1.28v1.82h-1.2v-9.3h1.2v5.96l3.58-3.3h1.44l-2.77 2.74 3.04 3.9h-1.46l-2.47-3.1z" fill="#fff"/></svg>