<svg width="60" height="60" viewBox="0 0 60 60" fill="none" xmlns="http://www.w3.org/2000/svg"><path fill-rule="evenodd" clip-rule="evenodd" d="M31 5v6h1a2 2 0 012 2v4l-.01.22c5.15.56 9.95 2.22 13.69 4.76 3.99 2.71 6.49 6.25 7.15 10.02.11.66.17 1.33.17 2v3a2 2 0 01-2 2H37.75a8 8 0 01-15.5 0H7a2 2 0 01-2-2v-3c0-.67.06-1.34.17-2 .66-3.77 3.16-7.3 7.15-10.02 3.74-2.54 8.54-4.2 13.7-4.76-.02-.07-.02-.15-.02-.22v-4c0-1.1.9-2 2-2h1V5h2zm-9 32h31v-3H7v3h15zm2.34 2a6 6 0 0011.32 0H24.34zM32 17v-4h-4v4h4zm-2 15h22.79c-.64-3.01-2.72-5.97-6.24-8.37C42.25 20.71 36.3 19 30 19c-6.3 0-12.25 1.7-16.55 4.63C9.93 26.03 7.85 29 7.2 32H30zm8.99 11.34c.38-.54.72-1.12 1-1.73l6.1 3.52-1 1.74-6.1-3.53zM34.6 47a11 11 0 001.73-1l3.53 6.1-1.74 1-3.52-6.1zm-5.61.96a11.01 11.01 0 002 0V55h-2v-7.05zM23.66 46a11 11 0 001.73 1l-3.52 6.1-1.74-1 3.53-6.1zM20 41.6a11 11 0 001 1.73l-6.1 3.53-1-1.74 6.1-3.52z" fill="#444"/></svg>